<svg width="1660" height="1660" xmlns="http://www.w3.org/2000/svg" xmlns:xlink="http://www.w3.org/1999/xlink" xml:space="preserve" overflow="hidden"><defs><clipPath id="clip0"><rect x="1157" y="373" width="1660" height="1660"/></clipPath><clipPath id="clip1"><rect x="1477" y="693" width="1020" height="1020"/></clipPath><clipPath id="clip2"><rect x="1477" y="693" width="1020" height="1020"/></clipPath><clipPath id="clip3"><rect x="1477" y="693" width="1020" height="1020"/></clipPath></defs><g clip-path="url(#clip0)" transform="translate(-1157 -373)"><path d="M1196 1203C1196 766.143 1550.14 412 1987 412L1987 412C2423.86 412 2778 766.143 2778 1203L2778 1203C2778 1639.86 2423.86 1994 1987 1994L1987 1994C1550.14 1994 1196 1639.86 1196 1203Z" stroke="#FFFFFF" stroke-width="77.9167" stroke-miterlimit="8" fill="#0099FF" fill-rule="evenodd"/><g clip-path="url(#clip1)"><g clip-path="url(#clip2)"><g clip-path="url(#clip3)"><path d="M1795.75 1467.96C1785.62 1467.97 1775.83 1464.29 1768.22 1457.6L1513.22 1234.48C1495.83 1219.26 1494.08 1192.83 1509.3 1175.44 1510.52 1174.05 1511.83 1172.74 1513.22 1171.52L1768.22 948.398C1785.61 933.182 1812.04 934.943 1827.26 952.333 1842.47 969.723 1840.71 996.155 1823.32 1011.37L1604.28 1203 1823.3 1394.63C1840.7 1409.84 1842.47 1436.27 1827.26 1453.66 1819.32 1462.75 1807.83 1467.96 1795.75 1467.96Z" fill="#FFFFFF"/><path d="M2178.25 1467.96C2155.14 1467.98 2136.4 1449.27 2136.38 1426.16 2136.37 1414.08 2141.58 1402.58 2150.68 1394.63L2369.72 1203 2150.7 1011.37C2133.31 996.155 2131.55 969.723 2146.76 952.333 2161.98 934.943 2188.41 933.182 2205.8 948.398L2460.8 1171.52C2478.19 1186.74 2479.94 1213.17 2464.72 1230.56 2463.5 1231.95 2462.19 1233.26 2460.8 1234.48L2205.8 1457.6C2198.19 1464.3 2188.39 1467.98 2178.25 1467.96Z" fill="#FFFFFF"/></g></g></g></g></svg>